<?xml version="1.0" encoding="UTF-8"?>
<!DOCTYPE svg PUBLIC "-//W3C//DTD SVG 1.1//EN" "http://www.w3.org/Graphics/SVG/1.1/DTD/svg11.dtd">
<svg xmlns="http://www.w3.org/2000/svg" version="1.1" width="528px" height="528px" style="shape-rendering:geometricPrecision; text-rendering:geometricPrecision; image-rendering:optimizeQuality; fill-rule:evenodd; clip-rule:evenodd" xmlns:xlink="http://www.w3.org/1999/xlink">
<g><path style="opacity:0.958" fill="#fcfcfc" d="M 273.5,3.5 C 301.122,1.42242 323.956,10.7558 342,31.5C 348.917,39.906 352.917,49.5727 354,60.5C 354.671,75.0086 354.505,89.5086 353.5,104C 354.123,115.828 354.623,127.661 355,139.5C 355.282,146.603 356.282,153.603 358,160.5C 360.727,166.954 363.727,173.288 367,179.5C 384.264,201.351 397.931,225.351 408,251.5C 419.132,288.417 423.799,326.084 422,364.5C 421.124,371.334 419.624,378 417.5,384.5C 417.837,387.176 418.17,389.843 418.5,392.5C 429.882,389.671 441.216,389.838 452.5,393C 462.642,396.965 468.975,404.132 471.5,414.5C 470.935,419.887 470.102,425.22 469,430.5C 453.052,453.458 435.219,474.958 415.5,495C 406.117,502.717 396.451,510.051 386.5,517C 367.817,526.892 349.15,526.892 330.5,517C 321.681,510.846 315.681,502.68 312.5,492.5C 280.965,494.718 249.965,491.552 219.5,483C 214.903,481.358 210.403,479.524 206,477.5C 191.841,507.646 169.341,516.812 138.5,505C 107.557,488.4 79.724,467.567 55,442.5C 46.1253,414.966 56.2919,399.966 85.5,397.5C 84.5736,387.447 87.5736,378.614 94.5,371C 104.373,365.593 114.539,365.093 125,369.5C 127.171,365.156 129.837,361.156 133,357.5C 131.706,311.629 142.706,268.963 166,229.5C 180,204.167 194,178.833 208,153.5C 209.108,144.558 209.608,135.558 209.5,126.5C 208.698,104.835 208.532,83.1687 209,61.5C 209.904,50.7733 213.904,41.44 221,33.5C 235.506,18.1397 253.006,8.13975 273.5,3.5 Z"/></g>
<g><path style="opacity:1" fill="#242021" d="M 405.5,387.5 C 405.672,388.492 405.338,389.158 404.5,389.5C 403.952,387.606 402.952,385.94 401.5,384.5C 397.258,389.972 393.758,395.972 391,402.5C 386.334,410.413 379.501,413.246 370.5,411C 362.179,408.758 355.012,404.592 349,398.5C 348.138,396.913 347.471,395.246 347,393.5C 346.829,388.467 346.329,383.467 345.5,378.5C 338.742,374.695 331.742,373.695 324.5,375.5C 324.167,375.5 323.833,375.5 323.5,375.5C 323.414,374.504 323.748,373.671 324.5,373C 332.294,372.094 339.627,373.594 346.5,377.5C 347.324,374.215 347.824,370.882 348,367.5C 350.678,363.169 353.678,359.169 357,355.5C 361.384,342.584 364.884,329.418 367.5,316C 365.43,302.124 361.93,288.624 357,275.5C 343.94,246.38 330.607,217.38 317,188.5C 313.635,177.977 310.801,167.31 308.5,156.5C 306.435,156.517 304.435,156.85 302.5,157.5C 307.377,154.797 311.877,151.464 316,147.5C 320.657,138.976 318.823,132.476 310.5,128C 299.318,126.999 289.318,123.165 280.5,116.5C 278.068,115.25 275.734,113.75 273.5,112C 269.903,110.723 266.236,110.39 262.5,111C 258.112,113.523 253.778,116.023 249.5,118.5C 250.833,117.067 252.333,115.733 254,114.5C 255.172,106.88 254.339,99.5463 251.5,92.5C 248.579,84.3861 242.912,80.5527 234.5,81C 229.069,84.6932 226.403,89.8599 226.5,96.5C 224.502,107.181 226.336,117.181 232,126.5C 232.671,127.252 233.504,127.586 234.5,127.5C 224.659,131.835 221.493,139.168 225,149.5C 227.314,153.975 230.48,157.642 234.5,160.5C 233.325,160.281 232.325,160.614 231.5,161.5C 222.995,182.177 213.161,202.177 202,221.5C 198.245,230.191 195.578,239.191 194,248.5C 184.005,265.49 175.338,283.157 168,301.5C 165.83,307.344 164.83,313.344 165,319.5C 173.786,340.523 181.786,361.857 189,383.5C 194.333,395.5 199.667,407.5 205,419.5C 206.409,424.835 206.909,430.168 206.5,435.5C 228.7,446.015 252.033,449.515 276.5,446C 289.93,445.245 302.597,441.745 314.5,435.5C 315.498,427.193 315.831,418.86 315.5,410.5C 316.338,410.842 316.672,411.508 316.5,412.5C 314.632,436.688 316.965,460.355 323.5,483.5C 322.833,483.5 322.167,483.5 321.5,483.5C 321.5,482.5 321.5,481.5 321.5,480.5C 286.835,484.031 252.835,480.864 219.5,471C 213.889,468.969 208.556,466.469 203.5,463.5C 203.167,462.833 202.833,462.167 202.5,461.5C 203.91,456.247 202.243,452.081 197.5,449C 195.246,447.623 193.08,446.123 191,444.5C 190.666,446.847 190.833,449.181 191.5,451.5C 191.768,453.099 191.434,454.432 190.5,455.5C 187.044,423.297 178.211,392.631 164,363.5C 161.234,360.019 157.734,358.519 153.5,359C 150.664,359.921 147.998,361.088 145.5,362.5C 145.5,362.167 145.5,361.833 145.5,361.5C 142.36,323.071 149.527,286.738 167,252.5C 184.159,220.178 201.826,188.178 220,156.5C 220.738,129.827 220.571,103.16 219.5,76.5C 218.438,62.5245 222.272,50.1912 231,39.5C 243.17,27.3284 257.67,19.1617 274.5,15C 297.873,13.2725 317.373,21.1059 333,38.5C 336.186,42.8731 338.853,47.5398 341,52.5C 342.282,80.7987 342.949,109.132 343,137.5C 343.856,146.274 345.189,154.941 347,163.5C 353.03,179.233 361.363,193.566 372,206.5C 387.283,228.739 397.949,253.073 404,279.5C 408.292,300.63 410.792,321.963 411.5,343.5C 412.605,356.008 410.771,368.008 406,379.5C 405.503,382.146 405.336,384.813 405.5,387.5 Z"/></g>
<g><path style="opacity:1" fill="#c2c3c5" d="M 313.5,95.5 C 302.75,88.242 291.083,86.5753 278.5,90.5C 282.783,79.192 290.783,75.0253 302.5,78C 309.336,81.8381 313.003,87.6714 313.5,95.5 Z"/></g>
<g><path style="opacity:1" fill="#c3c4c6" d="M 251.5,92.5 C 242.262,88.7856 233.928,90.1189 226.5,96.5C 226.403,89.8599 229.069,84.6932 234.5,81C 242.912,80.5527 248.579,84.3861 251.5,92.5 Z"/></g>
<g><path style="opacity:1" fill="#f8f8f8" d="M 313.5,95.5 C 314.643,103.663 313.476,111.663 310,119.5C 306.014,125.07 301.18,125.903 295.5,122C 306.111,115.788 308.278,107.288 302,96.5C 290.617,90.2784 284.117,93.7784 282.5,107C 282.763,110.698 283.763,114.198 285.5,117.5C 285.333,117.833 285.167,118.167 285,118.5C 283.67,117.418 282.17,116.751 280.5,116.5C 276.114,108.151 275.448,99.4848 278.5,90.5C 291.083,86.5753 302.75,88.242 313.5,95.5 Z"/></g>
<g><path style="opacity:1" fill="#f3f3f3" d="M 251.5,92.5 C 254.339,99.5463 255.172,106.88 254,114.5C 252.333,115.733 250.833,117.067 249.5,118.5C 249.887,112.947 249.387,107.281 248,101.5C 242.231,93.4348 236.897,93.7681 232,102.5C 228.693,111.53 230.86,118.863 238.5,124.5C 237.757,125.182 237.091,125.849 236.5,126.5C 235.508,126.328 234.842,126.662 234.5,127.5C 233.504,127.586 232.671,127.252 232,126.5C 226.336,117.181 224.502,107.181 226.5,96.5C 233.928,90.1189 242.262,88.7856 251.5,92.5 Z"/></g>
<g><path style="opacity:1" fill="#282324" d="M 249.5,118.5 C 245.967,122.435 241.634,125.101 236.5,126.5C 237.091,125.849 237.757,125.182 238.5,124.5C 230.86,118.863 228.693,111.53 232,102.5C 236.897,93.7681 242.231,93.4348 248,101.5C 249.387,107.281 249.887,112.947 249.5,118.5 Z"/></g>
<g><path style="opacity:1" fill="#f3be55" d="M 280.5,116.5 C 289.318,123.165 299.318,126.999 310.5,128C 318.823,132.476 320.657,138.976 316,147.5C 311.877,151.464 307.377,154.797 302.5,157.5C 299.669,158.079 297.336,159.412 295.5,161.5C 293.847,161.66 292.514,162.326 291.5,163.5C 290.508,163.328 289.842,163.662 289.5,164.5C 279.057,167.454 268.39,169.121 257.5,169.5C 250.936,169.593 244.936,167.926 239.5,164.5C 238.415,162.413 236.749,161.08 234.5,160.5C 230.48,157.642 227.314,153.975 225,149.5C 221.493,139.168 224.659,131.835 234.5,127.5C 234.842,126.662 235.508,126.328 236.5,126.5C 241.634,125.101 245.967,122.435 249.5,118.5C 253.778,116.023 258.112,113.523 262.5,111C 266.236,110.39 269.903,110.723 273.5,112C 275.734,113.75 278.068,115.25 280.5,116.5 Z"/></g>
<g><path style="opacity:1" fill="#382e25" d="M 305.5,143.5 C 306.773,144.077 306.773,144.743 305.5,145.5C 301.289,147.626 296.956,149.459 292.5,151C 278.063,153.16 263.563,154.66 249,155.5C 239.061,157.194 231.227,154.028 225.5,146C 226.167,145.333 226.833,145.333 227.5,146C 233.369,151.911 240.535,154.411 249,153.5C 263.623,152.621 278.123,150.788 292.5,148C 296.969,146.567 301.302,145.067 305.5,143.5 Z"/></g>
<g><path style="opacity:1" fill="#fefefe" d="M 323.5,375.5 C 321.871,376.625 320.371,377.959 319,379.5C 317.306,389.779 316.139,400.112 315.5,410.5C 315.831,418.86 315.498,427.193 314.5,435.5C 302.597,441.745 289.93,445.245 276.5,446C 252.033,449.515 228.7,446.015 206.5,435.5C 206.909,430.168 206.409,424.835 205,419.5C 199.667,407.5 194.333,395.5 189,383.5C 181.786,361.857 173.786,340.523 165,319.5C 164.83,313.344 165.83,307.344 168,301.5C 175.338,283.157 184.005,265.49 194,248.5C 195.578,239.191 198.245,230.191 202,221.5C 213.161,202.177 222.995,182.177 231.5,161.5C 232.325,160.614 233.325,160.281 234.5,160.5C 235.585,162.587 237.251,163.92 239.5,164.5C 241.8,167.324 244.8,169.157 248.5,170C 258.545,170.831 268.545,170.498 278.5,169C 282.58,168.245 286.246,166.745 289.5,164.5C 289.842,163.662 290.508,163.328 291.5,163.5C 293.483,163.843 294.817,163.176 295.5,161.5C 298.331,160.921 300.664,159.588 302.5,157.5C 304.435,156.85 306.435,156.517 308.5,156.5C 310.801,167.31 313.635,177.977 317,188.5C 330.607,217.38 343.94,246.38 357,275.5C 361.93,288.624 365.43,302.124 367.5,316C 364.884,329.418 361.384,342.584 357,355.5C 353.678,359.169 350.678,363.169 348,367.5C 347.824,370.882 347.324,374.215 346.5,377.5C 339.627,373.594 332.294,372.094 324.5,373C 323.748,373.671 323.414,374.504 323.5,375.5 Z"/></g>
<g><path style="opacity:1" fill="#554a3f" d="M 302.5,157.5 C 300.664,159.588 298.331,160.921 295.5,161.5C 297.336,159.412 299.669,158.079 302.5,157.5 Z"/></g>
<g><path style="opacity:1" fill="#554939" d="M 234.5,160.5 C 236.749,161.08 238.415,162.413 239.5,164.5C 237.251,163.92 235.585,162.587 234.5,160.5 Z"/></g>
<g><path style="opacity:1" fill="#7e7a78" d="M 295.5,161.5 C 294.817,163.176 293.483,163.843 291.5,163.5C 292.514,162.326 293.847,161.66 295.5,161.5 Z"/></g>
<g><path style="opacity:1" fill="#3f362f" d="M 239.5,164.5 C 244.936,167.926 250.936,169.593 257.5,169.5C 268.39,169.121 279.057,167.454 289.5,164.5C 286.246,166.745 282.58,168.245 278.5,169C 268.545,170.498 258.545,170.831 248.5,170C 244.8,169.157 241.8,167.324 239.5,164.5 Z"/></g>
<g><path style="opacity:1" fill="#b3b1b2" d="M 373.5,260.5 C 372.523,263.287 372.19,266.287 372.5,269.5C 371.382,252.776 367.382,236.609 360.5,221C 360.667,220.5 360.833,220 361,219.5C 367.491,232.473 371.658,246.14 373.5,260.5 Z"/></g>
<g><path style="opacity:1" fill="#aba9aa" d="M 162.5,266.5 C 163.097,266.735 163.43,267.235 163.5,268C 160.128,278.209 158.294,288.709 158,299.5C 156.841,288.116 158.341,277.116 162.5,266.5 Z"/></g>
<g><path style="opacity:1" fill="#c9c9cb" d="M 252.5,273.5 C 253.822,273.33 254.989,273.663 256,274.5C 256.667,278.833 256.667,283.167 256,287.5C 252.019,313.353 249.352,339.353 248,365.5C 247.667,367.5 247.333,369.5 247,371.5C 244.565,374.228 242.565,373.894 241,370.5C 241.245,340.625 243.912,310.958 249,281.5C 249.696,278.562 250.862,275.896 252.5,273.5 Z"/></g>
<g><path style="opacity:1" fill="#cccbcb" d="M 373.5,260.5 C 374.917,287.755 372.75,314.755 367,341.5C 366.408,344.4 364.908,346.233 362.5,347C 365.167,338.344 367.334,329.511 369,320.5C 370.754,303.537 371.92,286.537 372.5,269.5C 372.19,266.287 372.523,263.287 373.5,260.5 Z"/></g>
<g><path style="opacity:1" fill="#f5c055" d="M 190.5,455.5 C 193.599,469.78 189.932,481.946 179.5,492C 170.638,496.274 161.305,497.608 151.5,496C 140.586,491.209 129.919,485.876 119.5,480C 107.833,471 96.1667,462 84.5,453C 77.9679,446.802 71.8013,440.302 66,433.5C 62.6743,426.597 63.841,420.43 69.5,415C 75.8522,412.202 82.5189,410.536 89.5,410C 95.516,409.317 98.8494,405.984 99.5,400C 97.4525,393.271 98.4525,387.104 102.5,381.5C 104.879,379.958 107.546,379.291 110.5,379.5C 115.369,379.763 120.036,380.929 124.5,383C 126.5,383.667 128.5,383.667 130.5,383C 135.387,376.048 140.387,369.215 145.5,362.5C 147.998,361.088 150.664,359.921 153.5,359C 157.734,358.519 161.234,360.019 164,363.5C 178.211,392.631 187.044,423.297 190.5,455.5 Z"/></g>
<g><path style="opacity:1" fill="#3c3530" d="M 145.5,361.5 C 145.5,361.833 145.5,362.167 145.5,362.5C 140.387,369.215 135.387,376.048 130.5,383C 128.5,383.667 126.5,383.667 124.5,383C 120.036,380.929 115.369,379.763 110.5,379.5C 107.546,379.291 104.879,379.958 102.5,381.5C 98.4525,387.104 97.4525,393.271 99.5,400C 98.8494,405.984 95.516,409.317 89.5,410C 82.5189,410.536 75.8522,412.202 69.5,415C 63.841,420.43 62.6743,426.597 66,433.5C 71.8013,440.302 77.9679,446.802 84.5,453C 96.1667,462 107.833,471 119.5,480C 129.919,485.876 140.586,491.209 151.5,496C 161.305,497.608 170.638,496.274 179.5,492C 189.932,481.946 193.599,469.78 190.5,455.5C 191.434,454.432 191.768,453.099 191.5,451.5C 192.485,455.634 192.818,459.968 192.5,464.5C 192.335,467.85 192.502,471.183 193,474.5C 193.41,473.099 193.91,471.766 194.5,470.5C 196.453,466.88 199.119,463.88 202.5,461.5C 202.833,462.167 203.167,462.833 203.5,463.5C 200.702,464.706 198.535,466.706 197,469.5C 193.26,477.22 188.76,484.387 183.5,491C 167.926,500.932 152.259,500.932 136.5,491C 110.239,476.108 86.4059,457.942 65,436.5C 59.9936,426.508 62.1603,418.342 71.5,412C 79.7685,410.097 87.9352,407.93 96,405.5C 96.9581,403.801 97.4581,401.967 97.5,400C 95.4201,379.037 104.087,372.703 123.5,381C 125.833,381.667 128.167,381.667 130.5,381C 134.288,376.594 137.455,371.761 140,366.5C 141.704,364.627 143.537,362.96 145.5,361.5 Z"/></g>
<g><path style="opacity:1" fill="#f5c055" d="M 404.5,389.5 C 405.085,395.5 407.418,400.666 411.5,405C 423.155,404.64 434.821,404.64 446.5,405C 457.425,408.639 460.592,415.806 456,426.5C 440.798,447.539 424.298,467.539 406.5,486.5C 404.973,486.427 403.973,487.094 403.5,488.5C 396.351,492.924 389.685,498.09 383.5,504C 367.893,513.336 352.227,513.67 336.5,505C 328.958,499.745 324.624,492.578 323.5,483.5C 316.965,460.355 314.632,436.688 316.5,412.5C 317.246,401.546 318.746,390.546 321,379.5C 322.376,378.295 323.542,376.962 324.5,375.5C 331.742,373.695 338.742,374.695 345.5,378.5C 346.329,383.467 346.829,388.467 347,393.5C 347.471,395.246 348.138,396.913 349,398.5C 355.012,404.592 362.179,408.758 370.5,411C 379.501,413.246 386.334,410.413 391,402.5C 393.758,395.972 397.258,389.972 401.5,384.5C 402.952,385.94 403.952,387.606 404.5,389.5 Z"/></g>
<g><path style="opacity:1" fill="#4c433b" d="M 323.5,375.5 C 323.833,375.5 324.167,375.5 324.5,375.5C 323.542,376.962 322.376,378.295 321,379.5C 318.746,390.546 317.246,401.546 316.5,412.5C 316.672,411.508 316.338,410.842 315.5,410.5C 316.139,400.112 317.306,389.779 319,379.5C 320.371,377.959 321.871,376.625 323.5,375.5 Z"/></g>
<g><path style="opacity:1" fill="#423932" d="M 405.5,387.5 C 407.264,391.205 408.431,395.205 409,399.5C 410.167,400.667 411.333,401.833 412.5,403C 423.822,402.653 435.155,402.653 446.5,403C 457.273,406.384 461.44,413.551 459,424.5C 455.333,430.167 451.667,435.833 448,441.5C 437.707,454.129 427.04,466.462 416,478.5C 413.234,481.777 410.067,484.443 406.5,486.5C 424.298,467.539 440.798,447.539 456,426.5C 460.592,415.806 457.425,408.639 446.5,405C 434.821,404.64 423.155,404.64 411.5,405C 407.418,400.666 405.085,395.5 404.5,389.5C 405.338,389.158 405.672,388.492 405.5,387.5 Z"/></g>
<g><path style="opacity:1" fill="#efbb54" d="M 202.5,461.5 C 199.119,463.88 196.453,466.88 194.5,470.5C 193.833,468.5 193.167,466.5 192.5,464.5C 192.818,459.968 192.485,455.634 191.5,451.5C 190.833,449.181 190.666,446.847 191,444.5C 193.08,446.123 195.246,447.623 197.5,449C 202.243,452.081 203.91,456.247 202.5,461.5 Z"/></g>
<g><path style="opacity:1" fill="#9f7d3f" d="M 192.5,464.5 C 193.167,466.5 193.833,468.5 194.5,470.5C 193.91,471.766 193.41,473.099 193,474.5C 192.502,471.183 192.335,467.85 192.5,464.5 Z"/></g>
<g><path style="opacity:1" fill="#5a5451" d="M 406.5,486.5 C 406.027,487.906 405.027,488.573 403.5,488.5C 403.973,487.094 404.973,486.427 406.5,486.5 Z"/></g>
<g><path style="opacity:1" fill="#3a3330" d="M 321.5,483.5 C 322.167,483.5 322.833,483.5 323.5,483.5C 324.624,492.578 328.958,499.745 336.5,505C 352.227,513.67 367.893,513.336 383.5,504C 389.685,498.09 396.351,492.924 403.5,488.5C 395.595,496.232 386.928,503.065 377.5,509C 363.474,514.219 349.808,513.553 336.5,507C 328.057,501.386 323.057,493.552 321.5,483.5 Z"/></g>
</svg>
